#!OML:ASF F:\VICON\USERDATA\INSTALL\rory3\rory3.ASF
:FULLY-SPECIFIED
:DEGREES
786
root 0.631662 15.3689 3.76483 9.26824 -46.7628 15.8316
lowerback 3.22915 7.78887 7.59842
upperback 7.17524 10.5465 -4.80184
thorax 8.22406 5.94128 -8.7701
lowerneck -0.0948492 -5.17831 -8.67241
upperneck 53.9564 -10.2079 4.15503
head 24.8359 -5.28628 2.34797
rclavicle 4.37326e-014 -5.08889e-014
rhumerus -49.4649 59.8312 -134.414
rradius 91.5889
rwrist -27.8444
rhand 25.1285 -25.9636
rfingers 7.12502
rthumb 49.2791 -47.5568
lclavicle 4.37326e-014 -5.08889e-014
lhumerus -10.7577 -74.8341 88.5198
lradius 101.833
lwrist 27.1016
lhand -6.75728 -22.0319
lfingers 7.12502
lthumb 19.1042 7.0498
rfemur -67.1941 -8.45235 8.42552
rtibia 89.4726
rfoot -11.039 -15.442
rtoes -31.0869
lfemur -56.6664 -22.6501 -30.6047
ltibia 61.7354
lfoot -23.8288 3.70022
ltoes 6.92776
787
root 0.638971 15.3574 3.74184 9.68495 -46.4921 15.3918
lowerback 3.50945 7.7813 7.74852
upperback 6.9671 10.5436 -4.66211
thorax 7.82929 5.92125 -8.75538
lowerneck 0.201598 -5.242 -8.75093
upperneck 53.9405 -10.4285 4.38259
head 24.7917 -5.37189 2.46871
rclavicle -2.70347e-014 3.02153e-014
rhumerus -49.3638 59.4245 -134.136
rradius 91.6146
rwrist -27.611
rhand 25.7245 -25.8084
rfingers 7.12502
rthumb 49.8254 -47.1223
lclavicle -2.70347e-014 3.02153e-014
lhumerus -11.2966 -75.4378 89.1159
lradius 101.913
lwrist 28.255
lhand -7.41555 -22.3209
lfingers 7.12502
lthumb 18.4711 6.82209
rfemur -67.4182 -8.38948 8.83075
rtibia 89.5671
rfoot -11.1809 -15.5682
rtoes -29.9406
lfemur -57.072 -22.7903 -30.0436
ltibia 61.8707
lfoot -23.7244 3.27797
ltoes 7.84434
788
root 0.654191 15.3299 3.67074 10.6505 -46.0737 14.1743
lowerback 4.49884 7.54908 8.20362
upperback 6.58769 10.2713 -4.31872
thorax 6.7995 5.7444 -8.82995
lowerneck 0.345202 -5.18677 -8.95172
upperneck 54.0901 -10.3145 4.30835
head 24.9094 -5.38611 2.49516
rclavicle -7.15625e-015 3.33958e-014
rhumerus -49.9046 59.3701 -134.474
rradius 91.6118
rwrist -27.3606
rhand 26.5645 -25.7079
rfingers 7.12502
rthumb 50.5935 -46.6134
lclavicle -7.15625e-015 3.33958e-014
lhumerus -11.8063 -74.8748 89.7347
lradius 101.845
lwrist 27.2201
lhand -4.7247 -21.6727
lfingers 7.12502
lthumb 21.0579 7.20393
rfemur -67.9592 -7.87317 9.99839
rtibia 89.7465
rfoot -11.3311 -16.0354
rtoes -28.5879
lfemur -57.9376 -22.5513 -28.7504
ltibia 62.2341
lfoot -23.4889 2.46787
ltoes 8.6888
789
root 0.646397 15.3501 3.71362 10.0702 -46.3213 14.8799
lowerback 3.73872 7.52582 7.99043
upperback 6.80611 10.2041 -4.49156
thorax 7.45187 5.73831 -8.78216
lowerneck 0.204139 -5.11784 -8.9327
upperneck 54.2308 -10.1154 4.06397
head 25.0534 -5.33198 2.37979
rclavicle 1.03368e-014 3.97569e-014
rhumerus -49.903 59.7566 -134.665
rradius 91.4958
rwrist -27.4056
rhand 27.285 -26.4696
rfingers 7.12502
rthumb 51.2503 -47.0102
lclavicle 1.03368e-014 3.97569e-014
lhumerus -11.6069 -74.5583 89.4443
lradius 101.831
lwrist 27.3961
lhand -5.3005 -21.6098
lfingers 7.12502
lthumb 20.5047 7.32739
rfemur -67.5907 -8.19283 9.29812
rtibia 89.6993
rfoot -11.4251 -15.6593
rtoes -29.1026
lfemur -57.4879 -22.7645 -29.4669
ltibia 62.2345
lfoot -23.7984 2.68059
ltoes 9.62186
790
root 0.65552 15.3316 3.66835 10.4447 -46.1011 14.3736
lowerback 4.39417 7.39 7.9817
upperback 6.61058 10.0434 -4.23785
thorax 6.76772 5.61096 -8.62478
lowerneck 0.205469 -5.15544 -8.95969
upperneck 54.3454 -10.0923 3.82746
head 25.1493 -5.34747 2.25032
rclavicle 8.5875e-014 -4.77083e-015
rhumerus -50.0739 59.9603 -134.682
rradius 91.444
rwrist -27.5154
rhand 24.5232 -23.6025
rfingers 7.12502
rthumb 48.723 -45.4708
lclavicle 8.5875e-014 -4.77083e-015
lhumerus -11.9763 -74.4129 89.9923
lradius 101.83
lwrist 27.4327
lhand -5.49624 -21.8025
lfingers 7.12502
lthumb 20.3166 7.15487
rfemur -67.899 -7.91842 9.77636
rtibia 89.8479
rfoot -11.8913 -15.6002
rtoes -27.3302
lfemur -57.9515 -22.5477 -28.9265
ltibia 62.4769
lfoot -23.7136 2.27467
ltoes 9.98875
791
root 0.658231 15.3295 3.66195 10.4752 -46.0774 14.3694
lowerback 4.4288 7.38344 7.92459
upperback 6.58796 10.0337 -4.19741
thorax 6.70053 5.59699 -8.55732
lowerneck 0.220639 -5.18892 -8.89387
upperneck 54.3342 -10.1543 3.80183
head 25.1232 -5.35756 2.21042
rclavicle -1.22451e-013 -1.27222e-014
rhumerus -50.0059 59.936 -134.552
rradius 91.4791
rwrist -27.4546
rhand 27.5739 -26.8731
rfingers 7.12502
rthumb 51.5131 -47.2635
lclavicle -1.22451e-013 -1.27222e-014
lhumerus -11.4928 -74.5687 89.562
lradius 101.918
lwrist 27.7013
lhand -5.2039 -21.8821
lfingers 7.12502
lthumb 20.5975 7.04505
rfemur -67.9503 -7.89761 9.72112
rtibia 89.8658
rfoot -12.5179 -15.1122
rtoes -25.4129
lfemur -58.0526 -22.5975 -28.7727
ltibia 62.441
lfoot -23.6683 1.95416
ltoes 10.7186
792
root 0.658105 15.334 3.6617 10.3861 -46.2375 14.4896
lowerback 4.26628 7.2277 7.84886
upperback 6.53491 9.81391 -4.15393
thorax 6.65986 5.47581 -8.46874
lowerneck 0.438093 -4.91449 -9.36279
upperneck 54.3572 -9.72833 3.94492
head 25.073 -5.30437 2.47475
rclavicle -4.21423e-014 1.59028e-015
rhumerus -51.1676 60.2009 -135.585
rradius 91.5587
rwrist -27.5148
rhand 27.1687 -27.273
rfingers 7.12502
rthumb 51.1444 -47.8734
lclavicle -4.21423e-014 1.59028e-015
lhumerus -12.3679 -73.9206 90.4223
lradius 101.961
lwrist 27.7361
lhand -4.66792 -21.8116
lfingers 7.12502
lthumb 21.1125 7.05899
rfemur -68.0053 -7.83448 9.6675
rtibia 89.8229
rfoot -12.2094 -15.2209
rtoes -26.6218
lfemur -58.0741 -22.6421 -28.6337
ltibia 62.4135
lfoot -23.7057 1.24273
ltoes 12.4824
